<?xml version="1.0" standalone="no"?>
<!DOCTYPE svg PUBLIC "-//W3C//DTD SVG 20010904//EN"
 "http://www.w3.org/TR/2001/REC-SVG-20010904/DTD/svg10.dtd">
<svg version="1.0" xmlns="http://www.w3.org/2000/svg"
 width="320.000000pt" height="320.000000pt" viewBox="0 0 320.000000 320.000000"
 preserveAspectRatio="xMidYMid meet">
<metadata>
Created by potrace 1.11, written by Peter Selinger 2001-2013
</metadata>
<g transform="translate(0.000000,320.000000) scale(0.100000,-0.100000)"
fill="#000000" stroke="none">
<path d="M210 1590 l0 -1050 1393 2 1392 3 3 1048 2 1047 -1395 0 -1395 0 0
-1050z m2705 5 l0 -970 -1315 0 -1315 0 -3 960 c-1 528 0 966 3 973 3 10 272
12 1317 10 l1313 -3 0 -970z"/>
<path d="M2162 2158 c3 -153 6 -179 27 -224 92 -209 390 -217 494 -14 27 53
28 60 30 233 l2 177 -278 0 -279 0 4 -172z"/>
<path d="M1125 2286 c-228 -53 -412 -197 -509 -398 -49 -101 -66 -183 -66
-314 0 -232 77 -398 260 -558 59 -51 206 -127 281 -145 183 -43 400 -11 557
81 77 45 209 179 255 258 47 81 83 193 92 288 l7 72 -366 0 c-201 0 -366 2
-366 5 0 2 81 144 180 315 99 170 180 313 180 315 0 9 -88 45 -160 67 -85 26
-263 33 -345 14z"/>
<path d="M2167 1634 c-3 -3 -3 -12 0 -20 8 -22 89 -18 115 6 18 16 19 20 5 20
-9 0 -20 -8 -26 -17 -9 -17 -11 -17 -45 0 -42 19 -41 19 -49 11z"/>
<path d="M2225 1630 c3 -5 8 -10 11 -10 2 0 4 5 4 10 0 6 -5 10 -11 10 -5 0
-7 -4 -4 -10z"/>
<path d="M2318 1633 c6 -2 18 -2 25 0 6 3 1 5 -13 5 -14 0 -19 -2 -12 -5z"/>
<path d="M2380 1625 c0 -10 -10 -14 -35 -13 -19 1 -38 -2 -42 -5 -3 -4 38 -7
93 -6 65 1 90 4 74 9 -14 4 -19 8 -12 9 6 1 12 6 12 11 0 6 -20 10 -45 10 -33
0 -45 -4 -45 -15z"/>
<path d="M2485 1630 c4 -6 11 -8 16 -5 14 9 11 15 -7 15 -8 0 -12 -5 -9 -10z"/>
<path d="M2516 1621 c-17 -19 -16 -19 73 -20 49 -1 97 -4 106 -7 13 -5 16 -2
13 17 -3 23 -7 24 -89 27 -74 2 -88 0 -103 -17z"/>
<path d="M2192 1159 l3 -280 130 0 130 0 3 50 c3 51 3 51 43 57 59 10 123 55
156 111 58 99 29 234 -66 296 -57 38 -107 46 -264 47 l-137 0 2 -281z"/>
</g>
</svg>
